    <svg xmlns="http://www.w3.org/2000/svg" viewBox="0 0 512 512" role="img" aria-label="Talysman tray icon" style="color:#f2f3f5">
      <title>Talysman tray icon</title>
      <defs>
        <mask id="trayMask" maskUnits="userSpaceOnUse" x="0" y="0" width="512" height="512">
          <g fill="#fff">
  <path d="M160 98 L256 42 L352 98 L322 116 L256 77 L190 116 Z"/>
  <path d="M79 119 L226 158 L226 196 L119 168 L119 209 L158 230 L136 264 L79 232 Z"/>
  <path d="M79 246 L119 265 L119 312 L205 352 L205 399 L79 340 Z"/>
  <g transform="translate(512 0) scale(-1 1)">
    <path d="M79 119 L226 158 L226 196 L119 168 L119 209 L158 230 L136 264 L79 232 Z"/>
    <path d="M79 246 L119 265 L119 312 L205 352 L205 399 L79 340 Z"/>
  </g>
  <path d="M194 149 H318 V190 H278 V337 H309 V431 L256 470 L203 431 V337 H234 V190 H194 Z"/>
</g>
          <g fill="#000">
  <path d="M256 239 L276 259 L256 279 L236 259 Z"/>
  <rect x="248" y="276" width="16" height="43" rx="4"/>
</g>
        </mask>
      </defs>
      <rect width="512" height="512" fill="currentColor" mask="url(#trayMask)"/>
    </svg>
