<?xml version="1.0" encoding="UTF-8" standalone="no"?>
<svg
   viewBox="0 0 1740 620"
   role="img"
   aria-label="Talysman logo with tagline"
   version="1.1"
   id="svg22"
   sodipodi:docname="talysman-lockup-tagline.svg"
   xmlns:inkscape="http://www.inkscape.org/namespaces/inkscape"
   xmlns:sodipodi="http://sodipodi.sourceforge.net/DTD/sodipodi-0.dtd"
   xmlns="http://www.w3.org/2000/svg"
   xmlns:svg="http://www.w3.org/2000/svg">
  <sodipodi:namedview
     id="namedview22"
     pagecolor="#ffffff"
     bordercolor="#000000"
     borderopacity="0.25"
     inkscape:showpageshadow="2"
     inkscape:pageopacity="0.0"
     inkscape:pagecheckerboard="0"
     inkscape:deskcolor="#d1d1d1" />
  <title
     id="title1">Talysman logo with tagline</title>
  <defs
     id="defs20">
    <linearGradient
       id="silver"
       x1="0"
       y1="0"
       x2="1"
       y2="1">
      <stop
         offset="0"
         stop-color="#f2f3f5"
         id="stop1" />
      <stop
         offset="0.48"
         stop-color="#c7ccd4"
         id="stop2" />
      <stop
         offset="1"
         stop-color="#8b9098"
         id="stop3" />
    </linearGradient>
    <radialGradient
       id="panelGlow"
       cx="48%"
       cy="38%"
       r="74%">
      <stop
         offset="0"
         stop-color="#16181b"
         id="stop4" />
      <stop
         offset="0.72"
         stop-color="#0e0f11"
         id="stop5" />
      <stop
         offset="1"
         stop-color="#08090a"
         id="stop6" />
    </radialGradient>
    <filter
       id="softShadow"
       x="-20%"
       y="-20%"
       width="140%"
       height="150%">
      <feDropShadow
         dx="0"
         dy="15"
         stdDeviation="18"
         flood-color="#000000"
         flood-opacity="0.55" />
    </filter>
    <mask
       id="lockupMask2"
       maskUnits="userSpaceOnUse"
       x="0"
       y="0"
       width="512"
       height="512">
      <g
         fill="#fff"
         id="g17">
        <path
           d="M160 90 L256 34 L352 90 L326 105 L256 64 L186 105 Z"
           id="path6" />
        <path
           d="M76 108 L226 149 L226 181 L111 150 L111 193 L151 213 L133 242 L76 213 Z"
           id="path7" />
        <path
           d="M126 164 L197 183 L197 222 L171 211 L171 201 L126 188 Z"
           id="path8" />
        <path
           d="M76 234 L111 252 L111 304 L200 346 L200 379 L76 322 Z"
           id="path9" />
        <path
           d="M126 264 L171 284 L171 316 L126 294 Z"
           id="path10" />
        <path
           d="M78 343 L200 399 L200 433 L112 383 Z"
           id="path11" />
        <g
           transform="translate(512 0) scale(-1 1)"
           id="g16">
          <path
             d="M76 108 L226 149 L226 181 L111 150 L111 193 L151 213 L133 242 L76 213 Z"
             id="path12" />
          <path
             d="M126 164 L197 183 L197 222 L171 211 L171 201 L126 188 Z"
             id="path13" />
          <path
             d="M76 234 L111 252 L111 304 L200 346 L200 379 L76 322 Z"
             id="path14" />
          <path
             d="M126 264 L171 284 L171 316 L126 294 Z"
             id="path15" />
          <path
             d="M78 343 L200 399 L200 433 L112 383 Z"
             id="path16" />
        </g>
        <path
           d="M201 140 H311 V174 H276 V329 H302 V428 L256 463 L210 428 V329 H236 V174 H201 Z"
           id="path17" />
      </g>
      <g
         fill="#000"
         id="g20">
        <path
           d="M256 232 L273 249 L256 266 L239 249 Z"
           id="path18" />
        <rect
           x="249"
           y="263"
           width="14"
           height="53"
           rx="4"
           id="rect18" />
        <rect
           x="229"
           y="367"
           width="18"
           height="22"
           rx="2"
           id="rect19" />
        <rect
           x="265"
           y="367"
           width="18"
           height="22"
           rx="2"
           id="rect20" />
      </g>
    </mask>
  </defs>
  <g
     transform="translate(42 24) scale(.92)"
     id="g21">
    <rect
       width="512"
       height="512"
       fill="url(#silver)"
       mask="url(#lockupMask2)"
       id="rect21" />
  </g>
  <path
     d="m 577.17773,183.17383 h 34.35059 V 280 h 13.91602 v -96.82617 h 34.2041 V 170.86914 H 577.17773 Z M 682.89062,280 h 14.79493 l 10.54687,-30.46875 h 44.9707 L 764.11621,280 h 14.64844 L 738.62793,170.86914 h -16.11328 z m 29.58985,-42.62695 7.69043,-22.11914 c 2.34375,-6.73829 5.71289,-17.13868 10.32715,-33.25196 4.61425,15.82032 7.83691,25.92774 10.47363,33.25196 l 7.91016,22.11914 z M 820.75684,280 h 64.45312 v -12.30469 h -50.53711 v -96.82617 h -13.91601 z m 135.52246,0 h 13.91601 v -44.67773 l 40.13669,-64.45313 h -16.04001 l -21.5332,35.22949 c -3.51563,5.78614 -6.44531,10.7666 -9.375,17.79785 -2.92969,-6.81152 -5.85938,-11.79199 -9.52149,-17.79785 l -21.60644,-35.22949 h -16.11328 l 40.13672,64.45313 z m 130.9814,1.9043 c 25.1954,0 39.6241,-13.76953 39.6241,-31.64063 0,-20.36133 -19.1895,-26.95312 -30.9082,-30.17578 l -10.9131,-3.00293 c -7.9834,-2.19726 -20.8008,-6.22559 -20.8008,-17.65137 0,-10.2539 9.375,-17.72461 23.5107,-17.72461 12.9639,0 22.7784,6.07911 24.0235,16.69922 h 13.623 c -0.6592,-16.47949 -15.6738,-29.0039 -37.207,-29.0039 -21.0938,0 -37.5,12.23144 -37.5,30.68847 0,14.50196 10.2539,23.51075 27.832,28.49121 l 13.1836,3.73536 c 11.6455,3.29589 21.6065,7.17773 21.6065,17.72461 0,11.6455 -11.2793,19.40917 -26.0743,19.40917 -12.8173,0 -24.2431,-5.63964 -25.3418,-18.01757 h -14.2822 c 1.2451,18.31054 15.9668,30.46875 39.624,30.46875 z M 1173.5645,280 h 13.2568 v -62.3291 c 0,-8.42285 -0.293,-21.31348 -0.5127,-31.71387 4.3213,12.81738 8.5693,25.56152 10.9863,31.71387 L 1222.0508,280 h 12.0849 l 24.3897,-62.3291 c 2.4902,-6.37207 7.0312,-19.48242 10.9863,-31.9336 -0.2929,11.35254 -0.5127,23.87696 -0.5127,31.9336 V 280 h 13.6963 V 170.86914 h -19.8486 l -26.5137,68.84766 c -2.124,5.49316 -5.4932,16.25976 -8.0566,24.8291 -2.5635,-8.86231 -6.0059,-19.55567 -8.0567,-24.8291 l -26.8799,-68.84766 h -19.7753 z m 151.123,0 h 14.7949 l 10.5469,-30.46875 H 1395 L 1405.9131,280 h 14.6484 l -40.1367,-109.13086 h -16.1133 z m 29.5898,-42.62695 7.6905,-22.11914 c 2.3437,-6.73829 5.7129,-17.13868 10.3271,-33.25196 4.6143,15.82032 7.8369,25.92774 10.4737,33.25196 l 7.9101,22.11914 z M 1462.5537,280 h 13.9893 v -62.25586 c 0,-5.27344 -0.5127,-16.18652 -1.0987,-30.17578 8.4961,15.16113 12.6709,22.48535 17.6514,30.32226 L 1532.6465,280 h 16.5527 V 170.86914 h -13.916 v 66.94336 c 0,5.85937 0.073,15.16113 0.9522,25.70801 -4.9805,-9.8877 -9.961,-18.23731 -12.8907,-22.85156 L 1478.96,170.86914 h -16.4063 z"
     id="text21"
     style="font-size:150px;font-family:Inter, Arial, sans-serif;letter-spacing:25;fill:url(#silver)"
     aria-label="TALYSMAN" />
  <path
     d="m 581.06152,370 h 4.23047 v -11.50391 h 11.72656 v -3.61816 h -11.72656 v -8.8877 h 12.96973 v -3.63671 h -17.2002 z m 48.91797,0.37109 c 7.16211,0 12.4502,-5.34375 12.4502,-14.17578 0,-8.86914 -5.28809,-14.21289 -12.4502,-14.21289 -7.18066,0 -12.4873,5.34375 -12.4873,14.21289 0,8.83203 5.30664,14.17578 12.4873,14.17578 z m 0,-3.85937 c -4.75,0 -8.29394,-3.63672 -8.29394,-10.31641 0,-6.69824 3.54394,-10.35351 8.29394,-10.35351 4.71289,0 8.25684,3.63672 8.25684,10.35351 0,6.67969 -3.54395,10.31641 -8.25684,10.31641 z m 44.09375,3.85937 c 6.10449,0 10.55762,-3.85937 11.41113,-9.333 h -4.26757 c -0.70508,3.52539 -3.65528,5.47363 -7.10645,5.47363 -4.73144,0 -8.29394,-3.59961 -8.29394,-10.31641 0,-6.67969 3.54394,-10.35351 8.29394,-10.35351 3.45117,0 6.40137,1.92968 7.10645,5.45507 h 4.24902 c -0.92773,-5.86328 -5.56641,-9.31445 -11.39258,-9.31445 -7.16211,0 -12.45019,5.34375 -12.45019,14.21289 0,8.83203 5.26953,14.17578 12.45019,14.17578 z m 42.40528,0.0557 c 6.60546,0 10.98437,-4.11914 10.98437,-9.92676 v -18.14648 h -4.24902 v 17.79394 c 0,3.72949 -2.5791,6.43848 -6.73535,6.43848 -4.17481,0 -6.79102,-2.70899 -6.79102,-6.43848 v -17.79394 h -4.23047 V 360.5 c 0,5.80762 4.36035,9.92676 11.02149,9.92676 z m 41.38476,0.0371 c 6.49414,0 10.24219,-3.41407 10.24219,-8.1084 0,-4.99121 -4.43457,-6.88379 -7.95996,-7.79297 l -2.69043,-0.70508 c -2.11524,-0.55664 -4.97266,-1.54004 -4.97266,-4.15625 0,-2.33789 2.11524,-4.04492 5.47363,-4.04492 3.13575,0 5.38086,1.44727 5.65918,3.9707 h 4.11914 c -0.12988,-4.39746 -4.00781,-7.64453 -9.68554,-7.64453 -5.56641,0 -9.79688,3.17285 -9.79688,7.95996 0,3.78516 2.67188,6.10449 7.19922,7.31055 l 3.22852,0.89062 c 2.96875,0.79786 5.25097,1.74415 5.25097,4.15625 0,2.67188 -2.5791,4.45313 -6.08593,4.45313 -3.19141,0 -5.86328,-1.41016 -6.1045,-4.43457 h -4.24902 c 0.25977,5.04687 4.15625,8.14551 10.37207,8.14551 z m 58.11035,-10.8545 c 1.52149,0 2.72754,-1.20605 2.72754,-2.72753 0,-1.54004 -1.20605,-2.7461 -2.72754,-2.7461 -1.54004,0 -2.74609,1.20606 -2.74609,2.7461 0,1.52148 1.20605,2.72753 2.74609,2.72753 z m 60.42969,10.76172 c 6.10449,0 10.55762,-3.85937 11.41113,-9.333 h -4.26758 c -0.70507,3.52539 -3.65527,5.47363 -7.10644,5.47363 -4.73145,0 -8.29395,-3.59961 -8.29395,-10.31641 0,-6.67969 3.54395,-10.35351 8.29395,-10.35351 3.45117,0 6.40137,1.92968 7.10644,5.45507 h 4.24903 c -0.92774,-5.86328 -5.56641,-9.31445 -11.39258,-9.31445 -7.16211,0 -12.4502,5.34375 -12.4502,14.21289 0,8.83203 5.26954,14.17578 12.4502,14.17578 z m 42.90625,0 c 7.16211,0 12.4502,-5.34375 12.4502,-14.17578 0,-8.86914 -5.28809,-14.21289 -12.4502,-14.21289 -7.18066,0 -12.4873,5.34375 -12.4873,14.21289 0,8.83203 5.30664,14.17578 12.4873,14.17578 z m 0,-3.85937 c -4.75,0 -8.29395,-3.63672 -8.29395,-10.31641 0,-6.69824 3.54395,-10.35351 8.29395,-10.35351 4.71289,0 8.25684,3.63672 8.25684,10.35351 0,6.67969 -3.54395,10.31641 -8.25684,10.31641 z M 951.91797,370 h 4.28613 v -14.75098 c 0,-1.42871 -0.14844,-4.28613 -0.31543,-7.75586 2.00391,3.71094 3.06153,5.62207 4.41602,7.79297 L 969.6377,370 h 4.89843 V 342.35352 H 970.25 v 15.73437 c 0,1.5957 0.0742,4.17481 0.27832,6.84668 -1.22461,-2.65332 -2.46777,-4.75 -3.32129,-6.12305 l -10.40918,-16.458 h -4.87988 z m 42.34961,-24.00977 h 8.62792 V 370 h 4.249 v -24.00977 h 8.5909 v -3.63671 H 994.26758 Z M 1035.4668,370 h 4.2305 v -10.44629 h 5.6406 c 0.074,0 0.167,0 0.2412,0 L 1051.1826,370 h 4.8057 l -6.086,-11.16992 c 3.3584,-1.26172 5.0469,-4.08203 5.0469,-7.79297 0,-5.10254 -3.1728,-8.68359 -9.5742,-8.68359 h -9.9082 z m 4.2305,-14.06445 v -9.96387 h 5.1953 c 4.082,0 5.7705,1.94824 5.7705,5.06543 0,3.09863 -1.6885,4.89844 -5.7334,4.89844 z m 46.914,14.43554 c 7.1621,0 12.4502,-5.34375 12.4502,-14.17578 0,-8.86914 -5.2881,-14.21289 -12.4502,-14.21289 -7.1806,0 -12.4873,5.34375 -12.4873,14.21289 0,8.83203 5.3067,14.17578 12.4873,14.17578 z m 0,-3.85937 c -4.75,0 -8.2939,-3.63672 -8.2939,-10.31641 0,-6.69824 3.5439,-10.35351 8.2939,-10.35351 4.7129,0 8.2569,3.63672 8.2569,10.35351 0,6.67969 -3.544,10.31641 -8.2569,10.31641 z M 1119.2197,370 h 16.7549 v -3.63672 h -12.5244 v -24.00976 h -4.2305 z m 64.3262,-10.39063 c 1.5215,0 2.7275,-1.20605 2.7275,-2.72753 0,-1.54004 -1.206,-2.7461 -2.7275,-2.7461 -1.54,0 -2.7461,1.20606 -2.7461,2.7461 0,1.52148 1.2061,2.72753 2.7461,2.72753 z M 1232.4902,370 h 4.2305 v -11.50391 h 11.7266 v -3.61816 h -11.7266 v -8.8877 h 12.9697 v -3.63671 h -17.2002 z m 37.3955,0 h 4.2305 v -10.44629 h 5.6406 c 0.074,0 0.167,0 0.2412,0 L 1285.6016,370 h 4.8056 l -6.0859,-11.16992 c 3.3584,-1.26172 5.0469,-4.08203 5.0469,-7.79297 0,-5.10254 -3.1729,-8.68359 -9.5743,-8.68359 h -9.9082 z m 4.2305,-14.06445 v -9.96387 h 5.1953 c 4.0821,0 5.7705,1.94824 5.7705,5.06543 0,3.09863 -1.6884,4.89844 -5.7334,4.89844 z M 1309.5078,370 h 17.5156 v -3.63672 h -13.2851 v -8.5166 h 12.2461 v -3.61816 h -12.2461 v -8.23829 h 13.1738 v -3.63671 h -17.4043 z m 37.9151,0 h 17.5156 v -3.63672 h -13.2852 v -8.5166 h 12.2461 v -3.61816 h -12.2461 v -8.23829 h 13.1738 v -3.63671 h -17.4042 z m 46.914,0 c 8.4053,0 13.2852,-5.21387 13.2852,-13.86035 0,-8.59082 -4.8799,-13.78613 -13.0254,-13.78613 h -9.2588 V 370 Z m -4.7685,-3.71094 v -20.22461 h 4.75 c 6.0302,0 9.1474,3.58106 9.1474,10.0752 0,6.5498 -3.1172,10.14941 -9.3701,10.14941 z m 49.7158,4.08203 c 7.1621,0 12.4502,-5.34375 12.4502,-14.17578 0,-8.86914 -5.2881,-14.21289 -12.4502,-14.21289 -7.1807,0 -12.4873,5.34375 -12.4873,14.21289 0,8.83203 5.3066,14.17578 12.4873,14.17578 z m 0,-3.85937 c -4.75,0 -8.294,-3.63672 -8.294,-10.31641 0,-6.69824 3.544,-10.35351 8.294,-10.35351 4.7129,0 8.2568,3.63672 8.2568,10.35351 0,6.67969 -3.5439,10.31641 -8.2568,10.31641 z M 1471.8926,370 h 4.1191 v -14.88086 c 0,-2.11523 -0.093,-5.65918 -0.167,-8.55371 1.0576,3.41406 2.1524,6.88379 2.7832,8.55371 L 1484.3613,370 h 3.6182 l 5.6592,-14.88086 c 0.6308,-1.72559 1.7812,-5.28809 2.7646,-8.64648 -0.056,3.08007 -0.1484,6.60546 -0.1484,8.64648 V 370 h 4.2119 v -27.64648 h -6.2715 l -5.9375,15.86425 c -0.5381,1.52149 -1.4101,4.60157 -2.0596,7.06934 -0.6308,-2.52344 -1.5029,-5.58496 -2.041,-7.06934 l -6.0302,-15.86425 h -6.2344 z"
     id="text22"
     style="font-weight:500;font-size:38px;font-family:Inter, Arial, sans-serif;letter-spacing:15;fill:#8b9098"
     aria-label="FOCUS · CONTROL · FREEDOM" />
</svg>
