<?xml version="1.0" encoding="UTF-8" standalone="no"?>
<svg
   viewBox="0 0 1240 220"
   role="img"
   aria-label="Talysman wordmark"
   version="1.1"
   id="svg3"
   sodipodi:docname="talysman-wordmark.svg"
   xmlns:inkscape="http://www.inkscape.org/namespaces/inkscape"
   xmlns:sodipodi="http://sodipodi.sourceforge.net/DTD/sodipodi-0.dtd"
   xmlns="http://www.w3.org/2000/svg"
   xmlns:svg="http://www.w3.org/2000/svg">
  <sodipodi:namedview
     id="namedview3"
     pagecolor="#ffffff"
     bordercolor="#000000"
     borderopacity="0.25"
     inkscape:showpageshadow="2"
     inkscape:pageopacity="0.0"
     inkscape:pagecheckerboard="0"
     inkscape:deskcolor="#d1d1d1" />
  <title
     id="title1">Talysman wordmark</title>
  <defs
     id="defs3">
    <linearGradient
       id="silverText"
       x1="0"
       y1="0"
       x2="0"
       y2="1">
      <stop
         offset="0"
         stop-color="#f2f3f5"
         id="stop1" />
      <stop
         offset="0.52"
         stop-color="#c7ccd4"
         id="stop2" />
      <stop
         offset="1"
         stop-color="#8b9098"
         id="stop3" />
    </linearGradient>
  </defs>
  <path
     d="M 44.316406,72.792969 H 74.544922 V 158 H 86.791016 V 72.792969 H 116.89063 V 61.964844 H 44.316406 Z M 139.34375,158 h 13.01953 l 9.28125,-26.8125 h 39.57422 L 210.82227,158 h 12.89062 L 188.39258,61.964844 h -14.17969 z m 26.03906,-37.51172 6.76758,-19.46484 c 2.0625,-5.92969 5.02734,-15.082034 9.08789,-29.261721 4.06055,13.921875 6.89649,22.816406 9.2168,29.261721 l 6.96094,19.46484 z M 262.66602,158 h 56.71875 V 147.17187 H 274.91211 V 61.964844 h -12.24609 z m 121.25976,0 h 12.24609 v -39.31641 l 35.32032,-56.718746 h -14.11524 l -18.94922,31.001953 c -3.09375,5.091797 -5.67187,9.474613 -8.25,15.662113 -2.57812,-5.99414 -5.15625,-10.376957 -8.3789,-15.662113 L 362.78516,61.964844 h -14.17969 l 35.32031,56.718746 z m 117.26367,1.67578 c 22.17188,0 34.86914,-12.11719 34.86914,-27.84375 0,-17.91797 -16.88672,-23.71875 -27.19922,-26.55469 l -9.60351,-2.64257 c -7.02539,-1.9336 -18.30469,-5.47852 -18.30469,-15.533208 0,-9.023437 8.25,-15.597656 20.68945,-15.597656 11.40821,0 20.04493,5.34961 21.14063,14.695313 h 11.98828 c -0.58008,-14.501953 -13.79297,-25.523438 -32.74219,-25.523438 -18.5625,0 -33,10.763672 -33,27.00586 0,12.761719 9.02344,20.689449 24.49219,25.072269 l 11.60156,3.28711 c 10.24805,2.90039 19.01368,6.3164 19.01368,15.59765 0,10.24805 -9.92579,17.08008 -22.94532,17.08008 -11.27929,0 -21.33398,-4.96289 -22.30078,-15.85547 h -12.56836 c 1.09571,16.11328 14.05078,26.8125 34.86914,26.8125 z M 579.13672,158 h 11.66601 v -54.84961 c 0,-7.412109 -0.25781,-18.755859 -0.45117,-27.908203 3.80274,11.279297 7.54102,22.494141 9.66797,27.908203 L 621.80469,158 h 10.63476 l 21.46289,-54.84961 c 2.19141,-5.607421 6.1875,-17.144531 9.66797,-28.101562 -0.25781,9.990234 -0.45117,21.011719 -0.45117,28.101562 V 158 h 12.05273 V 61.964844 h -17.46679 l -23.33203,60.585936 c -1.86914,4.83399 -4.83399,14.30859 -7.08985,21.84961 -2.25586,-7.79883 -5.28515,-17.20898 -7.08984,-21.84961 l -23.6543,-60.585936 h -17.40234 z m 134.98828,0 h 13.01953 l 9.28125,-26.8125 H 776 L 785.60352,158 h 12.89062 L 763.17383,61.964844 h -14.17969 z m 26.03906,-37.51172 6.76758,-19.46484 c 2.0625,-5.92969 5.02734,-15.082034 9.08789,-29.261721 4.06055,13.921875 6.89649,22.816406 9.2168,29.261721 l 6.96094,19.46484 z M 837.44727,158 h 12.31054 v -54.78516 c 0,-4.640621 -0.45117,-14.244137 -0.96679,-26.554684 7.47656,13.341797 11.15039,19.78711 15.5332,26.683594 L 899.12891,158 h 14.5664 V 61.964844 H 901.44922 V 120.875 c 0,5.15625 0.0645,13.3418 0.83789,22.62305 -4.38281,-8.70118 -8.76563,-16.04883 -11.34375,-20.10938 L 851.88477,61.964844 h -14.4375 z"
     id="text3"
     style="font-size:132px;font-family:Inter, Arial, sans-serif;letter-spacing:24;fill:url(#silverText)"
     aria-label="TALYSMAN" />
</svg>
