    <svg xmlns="http://www.w3.org/2000/svg" viewBox="0 0 1024 1024" role="img" aria-label="Talysman app icon">
      <title>Talysman app icon</title>

    <defs>
      <linearGradient id="silver" x1="0" y1="0" x2="1" y2="1">
        <stop offset="0" stop-color="#f2f3f5"/>
        <stop offset="0.48" stop-color="#c7ccd4"/>
        <stop offset="1" stop-color="#8b9098"/>
      </linearGradient>
      <radialGradient id="panelGlow" cx="48%" cy="38%" r="74%">
        <stop offset="0" stop-color="#16181b"/>
        <stop offset="0.72" stop-color="#0e0f11"/>
        <stop offset="1" stop-color="#08090a"/>
      </radialGradient>
      <filter id="softShadow" x="-20%" y="-20%" width="140%" height="150%">
        <feDropShadow dx="0" dy="15" stdDeviation="18" flood-color="#000000" flood-opacity="0.55"/>
      </filter>
      <mask id="appMask" maskUnits="userSpaceOnUse" x="0" y="0" width="512" height="512">
        <g fill="#fff">
  <path d="M160 92 L256 36 L352 92 L326 108 L256 66 L186 108 Z"/>
  <path d="M80 112 L224 151 L224 184 L114 154 L114 194 L150 213 L132 242 L80 216 Z"/>
  <path d="M80 235 L114 252 L114 304 L199 344 L199 382 L80 326 Z"/>
  <path d="M80 344 L199 399 L199 434 L113 385 Z"/>
  <g transform="translate(512 0) scale(-1 1)">
    <path d="M80 112 L224 151 L224 184 L114 154 L114 194 L150 213 L132 242 L80 216 Z"/>
    <path d="M80 235 L114 252 L114 304 L199 344 L199 382 L80 326 Z"/>
    <path d="M80 344 L199 399 L199 434 L113 385 Z"/>
  </g>
  <path d="M198 140 H314 V177 H277 V331 H305 V430 L256 466 L207 430 V331 H235 V177 H198 Z"/>
</g>
        <g fill="#000">
  <path d="M256 234 L274 252 L256 270 L238 252 Z"/>
  <rect x="249" y="267" width="14" height="50" rx="4"/>
  <rect x="228" y="369" width="20" height="23" rx="2"/>
  <rect x="264" y="369" width="20" height="23" rx="2"/>
</g>
      </mask>
    </defs>

      <rect width="1024" height="1024" rx="220" fill="url(#panelGlow)"/>
      <rect x="16" y="16" width="992" height="992" rx="208" fill="none" stroke="#26292e" stroke-width="0"/>
      <g transform="translate(158.72 158.72) scale(1.38000)">
        <rect width="512" height="512" fill="url(#silver)" mask="url(#appMask)"/>
      </g>
    </svg>
