<?xml version="1.0" encoding="UTF-8" standalone="no"?>
<svg
   viewBox="0 0 1740 520"
   role="img"
   aria-label="Talysman logo lockup"
   version="1.1"
   id="svg21"
   sodipodi:docname="talysman-lockup.svg"
   xmlns:inkscape="http://www.inkscape.org/namespaces/inkscape"
   xmlns:sodipodi="http://sodipodi.sourceforge.net/DTD/sodipodi-0.dtd"
   xmlns="http://www.w3.org/2000/svg"
   xmlns:svg="http://www.w3.org/2000/svg">
  <sodipodi:namedview
     id="namedview21"
     pagecolor="#ffffff"
     bordercolor="#000000"
     borderopacity="0.25"
     inkscape:showpageshadow="2"
     inkscape:pageopacity="0.0"
     inkscape:pagecheckerboard="0"
     inkscape:deskcolor="#d1d1d1" />
  <title
     id="title1">Talysman logo lockup</title>
  <defs
     id="defs20">
    <linearGradient
       id="silver"
       x1="0"
       y1="0"
       x2="1"
       y2="1">
      <stop
         offset="0"
         stop-color="#f2f3f5"
         id="stop1" />
      <stop
         offset="0.48"
         stop-color="#c7ccd4"
         id="stop2" />
      <stop
         offset="1"
         stop-color="#8b9098"
         id="stop3" />
    </linearGradient>
    <radialGradient
       id="panelGlow"
       cx="48%"
       cy="38%"
       r="74%">
      <stop
         offset="0"
         stop-color="#16181b"
         id="stop4" />
      <stop
         offset="0.72"
         stop-color="#0e0f11"
         id="stop5" />
      <stop
         offset="1"
         stop-color="#08090a"
         id="stop6" />
    </radialGradient>
    <filter
       id="softShadow"
       x="-20%"
       y="-20%"
       width="140%"
       height="150%">
      <feDropShadow
         dx="0"
         dy="15"
         stdDeviation="18"
         flood-color="#000000"
         flood-opacity="0.55" />
    </filter>
    <mask
       id="lockupMask"
       maskUnits="userSpaceOnUse"
       x="0"
       y="0"
       width="512"
       height="512">
      <g
         fill="#fff"
         id="g17">
        <path
           d="M160 90 L256 34 L352 90 L326 105 L256 64 L186 105 Z"
           id="path6" />
        <path
           d="M76 108 L226 149 L226 181 L111 150 L111 193 L151 213 L133 242 L76 213 Z"
           id="path7" />
        <path
           d="M126 164 L197 183 L197 222 L171 211 L171 201 L126 188 Z"
           id="path8" />
        <path
           d="M76 234 L111 252 L111 304 L200 346 L200 379 L76 322 Z"
           id="path9" />
        <path
           d="M126 264 L171 284 L171 316 L126 294 Z"
           id="path10" />
        <path
           d="M78 343 L200 399 L200 433 L112 383 Z"
           id="path11" />
        <g
           transform="translate(512 0) scale(-1 1)"
           id="g16">
          <path
             d="M76 108 L226 149 L226 181 L111 150 L111 193 L151 213 L133 242 L76 213 Z"
             id="path12" />
          <path
             d="M126 164 L197 183 L197 222 L171 211 L171 201 L126 188 Z"
             id="path13" />
          <path
             d="M76 234 L111 252 L111 304 L200 346 L200 379 L76 322 Z"
             id="path14" />
          <path
             d="M126 264 L171 284 L171 316 L126 294 Z"
             id="path15" />
          <path
             d="M78 343 L200 399 L200 433 L112 383 Z"
             id="path16" />
        </g>
        <path
           d="M201 140 H311 V174 H276 V329 H302 V428 L256 463 L210 428 V329 H236 V174 H201 Z"
           id="path17" />
      </g>
      <g
         fill="#000"
         id="g20">
        <path
           d="M256 232 L273 249 L256 266 L239 249 Z"
           id="path18" />
        <rect
           x="249"
           y="263"
           width="14"
           height="53"
           rx="4"
           id="rect18" />
        <rect
           x="229"
           y="367"
           width="18"
           height="22"
           rx="2"
           id="rect19" />
        <rect
           x="265"
           y="367"
           width="18"
           height="22"
           rx="2"
           id="rect20" />
      </g>
    </mask>
  </defs>
  <g
     transform="translate(42 24) scale(.92)"
     id="g21">
    <rect
       width="512"
       height="512"
       fill="url(#silver)"
       mask="url(#lockupMask)"
       id="rect21" />
  </g>
  <path
     d="m 577.17773,213.17383 h 34.35059 V 310 h 13.91602 v -96.82617 h 34.2041 V 200.86914 H 577.17773 Z M 682.89062,310 h 14.79493 l 10.54687,-30.46875 h 44.9707 L 764.11621,310 h 14.64844 L 738.62793,200.86914 h -16.11328 z m 29.58985,-42.62695 7.69043,-22.11914 c 2.34375,-6.73829 5.71289,-17.13868 10.32715,-33.25196 4.61425,15.82032 7.83691,25.92774 10.47363,33.25196 l 7.91016,22.11914 z M 820.75684,310 h 64.45312 v -12.30469 h -50.53711 v -96.82617 h -13.91601 z m 135.52246,0 h 13.91601 v -44.67773 l 40.13669,-64.45313 h -16.04001 l -21.5332,35.22949 c -3.51563,5.78614 -6.44531,10.7666 -9.375,17.79785 -2.92969,-6.81152 -5.85938,-11.79199 -9.52149,-17.79785 l -21.60644,-35.22949 h -16.11328 l 40.13672,64.45313 z m 130.9814,1.9043 c 25.1954,0 39.6241,-13.76953 39.6241,-31.64063 0,-20.36133 -19.1895,-26.95312 -30.9082,-30.17578 l -10.9131,-3.00293 c -7.9834,-2.19726 -20.8008,-6.22559 -20.8008,-17.65137 0,-10.2539 9.375,-17.72461 23.5107,-17.72461 12.9639,0 22.7784,6.07911 24.0235,16.69922 h 13.623 c -0.6592,-16.47949 -15.6738,-29.0039 -37.207,-29.0039 -21.0938,0 -37.5,12.23144 -37.5,30.68847 0,14.50196 10.2539,23.51075 27.832,28.49121 l 13.1836,3.73536 c 11.6455,3.29589 21.6065,7.17773 21.6065,17.72461 0,11.6455 -11.2793,19.40917 -26.0743,19.40917 -12.8173,0 -24.2431,-5.63964 -25.3418,-18.01757 h -14.2822 c 1.2451,18.31054 15.9668,30.46875 39.624,30.46875 z M 1173.5645,310 h 13.2568 v -62.3291 c 0,-8.42285 -0.293,-21.31348 -0.5127,-31.71387 4.3213,12.81738 8.5693,25.56152 10.9863,31.71387 L 1222.0508,310 h 12.0849 l 24.3897,-62.3291 c 2.4902,-6.37207 7.0312,-19.48242 10.9863,-31.9336 -0.2929,11.35254 -0.5127,23.87696 -0.5127,31.9336 V 310 h 13.6963 V 200.86914 h -19.8486 l -26.5137,68.84766 c -2.124,5.49316 -5.4932,16.25976 -8.0566,24.8291 -2.5635,-8.86231 -6.0059,-19.55567 -8.0567,-24.8291 l -26.8799,-68.84766 h -19.7753 z m 151.123,0 h 14.7949 l 10.5469,-30.46875 H 1395 L 1405.9131,310 h 14.6484 l -40.1367,-109.13086 h -16.1133 z m 29.5898,-42.62695 7.6905,-22.11914 c 2.3437,-6.73829 5.7129,-17.13868 10.3271,-33.25196 4.6143,15.82032 7.8369,25.92774 10.4737,33.25196 l 7.9101,22.11914 z M 1462.5537,310 h 13.9893 v -62.25586 c 0,-5.27344 -0.5127,-16.18652 -1.0987,-30.17578 8.4961,15.16113 12.6709,22.48535 17.6514,30.32226 L 1532.6465,310 h 16.5527 V 200.86914 h -13.916 v 66.94336 c 0,5.85937 0.073,15.16113 0.9522,25.70801 -4.9805,-9.8877 -9.961,-18.23731 -12.8907,-22.85156 L 1478.96,200.86914 h -16.4063 z"
     id="text21"
     style="font-size:150px;font-family:Inter, Arial, sans-serif;letter-spacing:25;fill:url(#silver)"
     aria-label="TALYSMAN" />
</svg>
